<?xml version="1.0" encoding="UTF-8" standalone="no"?><!DOCTYPE svg PUBLIC "-//W3C//DTD SVG 1.1//EN" "http://www.w3.org/Graphics/SVG/1.1/DTD/svg11.dtd"><svg width="251" height="68" viewBox="0 0 251 68" version="1.1" xmlns="http://www.w3.org/2000/svg" xmlns:xlink="http://www.w3.org/1999/xlink" xml:space="preserve" xmlns:serif="http://www.serif.com/" style="fill-rule:evenodd;clip-rule:evenodd;stroke-linejoin:round;stroke-miterlimit:2;"><path d="M0,0l0,26.6l4.14,0l0,-26.6l-4.14,0Zm4.29,0l2.59,26.6l1.4,0l-2.58,-26.6l-1.41,0Zm6.73,0l-2.58,26.6l1.4,0l2.59,-26.6l-1.41,0Zm1.56,0l0,26.6l4.18,0l0,-26.6l-4.18,0Zm15.69,0l0,20.48c0,3.57 3.23,6.35 6.69,6.35c3.46,0 6.69,-2.78 6.69,-6.35l0,-20.48l-4.18,0l0,20.33c0,1.44 -1.29,2.47 -2.51,2.47c-1.22,-0 -2.51,-1.03 -2.51,-2.47l0,-20.33l-4.18,0Zm26.26,0l0,26.6l4.18,0l0,-26.6l-4.18,0Zm4.33,0l3.95,26.6l1.45,0l-3.95,-26.6l-1.45,0Zm5.55,0l0,26.6l4.18,0l0,-26.6l-4.18,0Zm18.05,25.12l0,1.48l11.36,0l0,-1.48l-3.61,0l0,-23.64l3.61,0l0,-1.48l-11.36,0l0,1.48l3.57,0l-0,23.64l-3.57,0Z" style="fill:#0000dc;fill-rule:nonzero;"/><path d="M6.27,38.5l-5.74,26.6l2.13,0l1.79,-8.4l7.75,0l1.82,8.4l2.13,0l-5.66,-26.6l-2.05,0l3.42,16.3l-7.07,0l3.49,-16.3l-2.01,0Zm22.72,0l0,26.6l2.06,0l0,-11.25l3.45,0l6.31,11.25l2.36,0l-6.5,-11.48c3.12,-0.26 5.59,-2.88 5.59,-6.11l0,-2.66c0,-3.46 -2.89,-6.35 -6.35,-6.35l-6.92,0Zm6.73,13.41l-4.67,0l0,-11.51l4.67,0c2.43,0 4.52,1.98 4.52,4.48l0,2.4c0,2.73 -1.97,4.63 -4.52,4.63Zm24.81,-11.51l0,24.7l2.06,0l0,-24.7l7.1,0l0,-1.9l-16.26,0l0,1.9l7.1,0Zm27.63,24.93c3.65,0 6.57,-2.59 6.57,-6.35l0,-1.63c0,-4.33 -3.64,-5.82 -6.15,-6.39c-2.32,-0.53 -4.94,-1.4 -4.94,-4.52l0,-1.78c0,-2.47 2.13,-4.41 4.52,-4.41c2.36,0 4.52,1.94 4.52,4.41l0,0.95l2.05,0l0,-0.99c0,-3.65 -2.92,-6.35 -6.57,-6.35c-3.65,0 -6.57,2.7 -6.57,6.35l0,1.82c0,4.45 3.76,5.85 6.08,6.39c2.43,0.53 5.01,1.4 5.01,4.56l0,1.55c0,2.47 -2.13,4.41 -4.48,4.41c-2.4,0 -4.56,-1.94 -4.56,-4.41l0,-0.87l-2.05,0l0,0.91c0,3.76 2.92,6.35 6.57,6.35Z" style="fill:#0000dc;fill-rule:nonzero;"/><path d="M111.29,0.01l0,10.68l3.55,0c3.63,0 5.67,-1.92 5.67,-5.34c0,-3.42 -2.04,-5.34 -5.67,-5.34l-3.55,0Zm2.19,1.89l1.33,0c2.3,0 3.42,1.14 3.42,3.45c0,2.31 -1.12,3.45 -3.42,3.45l-1.33,0l0,-6.9Zm10.71,-0.09l0,-1.8l-2.1,0l0,1.8l2.1,0Zm0,8.88l0,-7.62l-2.1,0l0,7.62l2.1,0Zm4.7,-7.83c-1.92,0 -3.15,1.5 -3.15,3.87c0,2.37 1.21,3.87 3.12,3.87c0.91,0 1.56,-0.35 2.13,-1.14l0.03,0l0,0.67c0,1.49 -0.59,1.97 -1.53,1.97c-0.8,0 -1.28,-0.35 -1.32,-0.93l-2.1,0c0.12,1.5 1.27,2.43 3.37,2.43c2.19,0 3.62,-1.08 3.62,-3.39l0,-7.14l-1.98,0l0,1.02l-0.03,0c-0.59,-0.87 -1.24,-1.23 -2.16,-1.23Zm0.57,1.72c0.98,0 1.62,0.86 1.62,2.15c-0,1.29 -0.64,2.14 -1.62,2.14c-0.93,0 -1.53,-0.82 -1.53,-2.14c-0,-1.32 0.6,-2.15 1.53,-2.15Zm7.74,-2.77l-0,-1.8l-2.1,0l-0,1.8l2.1,0Zm-0,8.88l-0,-7.62l-2.1,0l-0,7.62l2.1,0Zm5.45,-1.58c-0.71,0 -0.99,-0.33 -0.99,-1.17l-0,-3.31l1.46,0l-0,-1.56l-1.46,0l-0,-1.98l-2.1,0l-0,1.98l-1.22,0l-0,1.56l1.22,0l-0,3.69c-0,1.77 0.77,2.47 2.53,2.47c0.35,0 0.82,-0.06 1.1,-0.15l-0,-1.6c-0.13,0.04 -0.34,0.07 -0.54,0.07Zm4.92,-6.28c-2.17,0 -3.22,1.17 -3.29,2.62l2.03,0c0.03,-0.72 0.48,-1.15 1.26,-1.15c0.74,0 1.25,0.39 1.25,1.35l-0,0.27c-0.48,0.03 -1.34,0.12 -1.91,0.21c-2.2,0.34 -2.95,1.18 -2.95,2.43c-0,1.32 0.98,2.31 2.6,2.31c1.04,0 1.9,-0.39 2.47,-1.2l0.03,0c-0,0.37 0.03,0.7 0.1,1.02l1.9,0c-0.14,-0.51 -0.22,-1.13 -0.22,-2.09l-0,-2.76c-0,-1.99 -1.11,-3.01 -3.27,-3.01Zm1.25,4.65c-0,0.69 -0.07,1.09 -0.44,1.45c-0.3,0.3 -0.76,0.44 -1.19,0.44c-0.74,0 -1.13,-0.39 -1.13,-0.96c-0,-0.62 0.36,-0.9 1.23,-1.05c0.45,-0.08 1.08,-0.14 1.53,-0.17l-0,0.29Zm6.08,3.21l-0,-10.68l-2.1,0l-0,10.68l2.1,0Zm4.13,-8.88l-0,-1.8l-2.09,0l-0,1.8l2.09,0Zm-0,8.88l-0,-7.62l-2.09,0l-0,7.62l2.09,0Zm5.03,-7.86c-2.18,0 -3.23,1.17 -3.3,2.62l2.04,0c0.03,-0.72 0.48,-1.15 1.26,-1.15c0.73,0 1.24,0.39 1.24,1.35l-0,0.27c-0.48,0.03 -1.33,0.12 -1.9,0.21c-2.21,0.34 -2.96,1.18 -2.96,2.43c-0,1.32 0.98,2.31 2.6,2.31c1.05,0 1.9,-0.39 2.47,-1.2l0.03,0c-0,0.37 0.03,0.7 0.11,1.02l1.89,0c-0.14,-0.51 -0.21,-1.13 -0.21,-2.09l-0,-2.76c-0,-1.99 -1.11,-3.01 -3.27,-3.01Zm1.24,4.65c0,0.69 -0.07,1.09 -0.43,1.45c-0.3,0.3 -0.77,0.44 -1.2,0.44c-0.74,0 -1.13,-0.39 -1.13,-0.96c0,-0.62 0.36,-0.9 1.23,-1.05c0.45,-0.08 1.08,-0.14 1.53,-0.17l0,0.29Z" style="fill:#0000dc;fill-rule:nonzero;"/><path d="M111.48,18.01l0,10.68l3.26,0c3.54,0 5.54,-1.92 5.54,-5.34c0,-3.42 -2,-5.34 -5.54,-5.34l-3.26,0Zm1.39,1.23l1.86,0c2.66,0 4.09,1.44 4.09,4.11c0,2.67 -1.43,4.11 -4.09,4.11l-1.86,0l0,-8.22Zm10.52,0.25l0,-1.48l-1.31,0l0,1.48l1.31,0Zm0,9.2l0,-7.62l-1.31,0l0,7.62l1.31,0Zm5.01,-7.81c-1.96,0 -3.22,1.51 -3.22,3.86c0,2.34 1.26,3.87 3.22,3.87c0.97,0 1.73,-0.43 2.27,-1.27l0.03,0l0,0.82c0,1.7 -0.67,2.4 -2.02,2.4c-1.12,0 -1.81,-0.51 -1.85,-1.39l-1.32,0c0.04,1.5 1.2,2.42 3.15,2.42c2.13,0 3.33,-1.13 3.33,-3.37l0,-7.15l-1.27,0l0,1.11l-0.03,0c-0.53,-0.87 -1.31,-1.3 -2.29,-1.3Zm0.22,1.09c1.32,0 2.13,1.06 2.13,2.77c-0,1.7 -0.81,2.76 -2.13,2.76c-1.25,0 -2.06,-1.09 -2.06,-2.76c-0,-1.68 0.81,-2.77 2.06,-2.77Zm7.03,-2.48l-0,-1.48l-1.32,0l-0,1.48l1.32,0Zm-0,9.2l-0,-7.62l-1.32,0l-0,7.62l1.32,0Zm5.02,-1.04c-0.76,0 -1.05,-0.36 -1.05,-1.23l-0,-4.3l1.52,0l-0,-1.05l-1.52,0l-0,-1.85l-1.31,0l-0,1.85l-1.33,0l-0,1.05l1.33,0l-0,4.44c-0,1.57 0.61,2.19 2.06,2.19c0.27,0 0.62,-0.03 0.85,-0.09l-0,-1.08c-0.14,0.04 -0.35,0.07 -0.55,0.07Zm4.83,-6.79c-1.93,0 -2.98,1.09 -3.06,2.53l1.33,0c0.04,-0.9 0.63,-1.51 1.73,-1.51c1.03,0 1.73,0.52 1.73,1.78l0,0.3c-0.6,0.05 -1.53,0.15 -2.2,0.26c-2.19,0.34 -2.9,1.14 -2.9,2.4c0,1.29 0.99,2.23 2.58,2.23c1.23,0 2.12,-0.46 2.64,-1.27l0.03,0c0,0.34 0.03,0.76 0.11,1.11l1.2,0c-0.11,-0.47 -0.19,-1.11 -0.19,-1.95l0,-2.93c0,-2.01 -1.13,-2.95 -3,-2.95Zm1.73,4.57c0,0.9 -0.15,1.32 -0.61,1.8c-0.38,0.39 -0.97,0.6 -1.58,0.6c-0.99,0 -1.56,-0.52 -1.56,-1.3c0,-0.75 0.45,-1.13 1.76,-1.32c0.58,-0.11 1.41,-0.2 1.99,-0.24l0,0.46Zm4.85,3.26l0,-10.68l-1.33,0l0,10.68l1.33,0Zm7.42,-1.23l0,-9.45l-1.38,0l0,10.68l6.84,0l0,-1.23l-5.46,0Zm8.1,-7.97l0,-1.48l-1.32,0l0,1.48l1.32,0Zm0,9.2l0,-7.62l-1.32,0l0,7.62l1.32,0Zm3.66,-6.57l0,-4.11l-1.32,0l0,10.68l1.3,0l0,-1.11l0.03,0c0.41,0.79 1.31,1.29 2.33,1.29c1.95,0 3.19,-1.58 3.19,-4.01c0,-2.43 -1.24,-3.98 -3.18,-3.98c-1.02,0 -1.9,0.47 -2.32,1.24l-0.03,0Zm2.01,-0.18c1.3,0 2.14,1.14 2.14,2.92c0,1.79 -0.84,2.94 -2.14,2.94c-1.26,0 -2.07,-1.12 -2.07,-2.94c0,-1.8 0.81,-2.92 2.07,-2.92Zm8.85,-0.95c-0.98,0 -1.74,0.41 -2.25,1.25l-0.03,0l0,-1.17l-1.26,0l0,7.62l1.32,0l0,-3.89c0,-1.67 0.81,-2.61 2.25,-2.61c0.16,0 0.36,0.03 0.52,0.05l0,-1.19c-0.16,-0.04 -0.39,-0.06 -0.55,-0.06Zm4.26,-0.13c-1.94,0 -2.99,1.09 -3.06,2.53l1.32,0c0.04,-0.9 0.63,-1.51 1.74,-1.51c1.02,0 1.72,0.52 1.72,1.78l0,0.3c-0.6,0.05 -1.53,0.15 -2.2,0.26c-2.19,0.34 -2.9,1.14 -2.9,2.4c0,1.29 0.99,2.23 2.58,2.23c1.23,0 2.12,-0.46 2.64,-1.27l0.03,0c0,0.34 0.03,0.76 0.11,1.11l1.2,0c-0.11,-0.47 -0.18,-1.11 -0.18,-1.95l0,-2.93c0,-2.01 -1.14,-2.95 -3,-2.95Zm1.72,4.57c0,0.9 -0.15,1.32 -0.61,1.8c-0.38,0.39 -0.96,0.6 -1.58,0.6c-0.99,-0 -1.56,-0.52 -1.56,-1.3c0,-0.75 0.45,-1.13 1.76,-1.32c0.58,-0.11 1.41,-0.2 1.99,-0.24l0,0.46Zm7.07,-4.44c-0.98,-0 -1.74,0.41 -2.25,1.25l-0.03,-0l0,-1.17l-1.26,-0l0,7.62l1.32,-0l0,-3.89c0,-1.67 0.81,-2.61 2.25,-2.61c0.16,-0 0.36,0.03 0.52,0.05l0,-1.19c-0.16,-0.04 -0.39,-0.06 -0.55,-0.06Zm7.89,0.08l-1.4,-0l-2.22,6.06l-0.03,-0l-2.19,-6.06l-1.42,-0l2.89,7.65c-0.49,1.35 -0.88,1.71 -1.89,1.71c-0.24,-0 -0.45,-0.03 -0.63,-0.09l0,1.11c0.2,0.06 0.44,0.07 0.69,0.07c1.64,-0 2.39,-0.54 3.14,-2.49l3.06,-7.96Z" style="fill:#0000dc;fill-rule:nonzero;"/><path d="M114.29,38.86c-2.23,0 -3.62,1.53 -3.62,4.02c0,2.49 1.39,4.02 3.62,4.02c2.24,-0 3.63,-1.53 3.63,-4.02c0,-2.49 -1.39,-4.02 -3.63,-4.02Zm0,1.08c1.4,0 2.25,1.12 2.25,2.94c0,1.82 -0.85,2.94 -2.25,2.94c-1.38,0 -2.23,-1.12 -2.23,-2.94c0,-1.82 0.85,-2.94 2.23,-2.94Zm8.19,-2.96c0.16,0 0.35,0.02 0.43,0.05l0,-1.02c-0.18,-0.05 -0.49,-0.07 -0.76,-0.07c-1.35,0 -2.09,0.72 -2.09,2.19l0,0.94l-1.33,0l0,1.05l1.33,0l0,6.57l1.31,0l0,-6.57l1.51,0l0,-1.05l-1.51,0l0,-0.8c0,-0.94 0.37,-1.29 1.11,-1.29Zm7.93,8.68c-0.76,0 -1.04,-0.37 -1.04,-1.24l0,-4.3l1.51,0l0,-1.05l-1.51,0l0,-1.85l-1.33,0l0,1.85l-1.31,0l0,1.05l1.31,0l0,4.44c0,1.57 0.62,2.19 2.08,2.19c0.26,0 0.61,-0.03 0.84,-0.09l0,-1.08c-0.14,0.05 -0.35,0.08 -0.55,0.08Zm3.44,-5.63l0,-4.02l-1.32,0l0,10.68l1.32,0l0,-4.37c0,-1.54 0.9,-2.34 1.98,-2.34c1.1,0 1.76,0.57 1.76,2.16l0,4.55l1.31,0l0,-4.65c0,-2.09 -1.01,-3.13 -2.75,-3.13c-0.89,0 -1.75,0.36 -2.27,1.12l-0.03,0Zm10.35,5.85c-1.24,0 -2.2,-0.86 -2.26,-2.73l5.69,0c0,-0.66 -0.04,-1.2 -0.14,-1.63c-0.4,-1.64 -1.61,-2.66 -3.34,-2.66c-2.21,0 -3.53,1.66 -3.53,3.91c0,2.5 1.33,4.13 3.58,4.13c1.95,0 3.11,-1.16 3.36,-2.49l-1.35,0c-0.18,0.86 -0.9,1.47 -2.01,1.47Zm-0.05,-6c1.17,0 2.04,0.78 2.18,2.26l-4.38,0c0.14,-1.45 0.99,-2.26 2.2,-2.26Zm15.66,-2.64l-0,-1.23l-6.69,0l-0,10.68l1.38,0l-0,-4.58l4.98,0l-0,-1.23l-4.98,0l-0,-3.64l5.31,0Zm4.28,1.62c-1.94,0 -2.99,1.09 -3.06,2.53l1.32,0c0.04,-0.9 0.63,-1.51 1.74,-1.51c1.02,0 1.72,0.53 1.72,1.78l-0,0.3c-0.6,0.05 -1.53,0.15 -2.2,0.26c-2.19,0.34 -2.9,1.14 -2.9,2.4c-0,1.29 0.99,2.23 2.58,2.23c1.23,0 2.12,-0.46 2.64,-1.27l0.03,0c-0,0.34 0.03,0.76 0.11,1.11l1.2,0c-0.11,-0.47 -0.18,-1.11 -0.18,-1.95l-0,-2.93c-0,-2.01 -1.14,-2.95 -3,-2.95Zm1.72,4.57c-0,0.91 -0.15,1.32 -0.61,1.8c-0.38,0.4 -0.96,0.61 -1.58,0.61c-0.99,0 -1.56,-0.53 -1.56,-1.31c-0,-0.75 0.45,-1.12 1.76,-1.32c0.58,-0.11 1.41,-0.19 1.99,-0.24l0,0.46Zm6.56,-4.57c-2.21,0 -3.59,1.55 -3.59,4.02c0,2.47 1.38,4.02 3.59,4.02c1.86,0 3.1,-1.27 3.25,-3.02l-1.38,0c-0.09,1.1 -0.84,1.94 -1.89,1.94c-1.35,0 -2.17,-1.11 -2.17,-2.94c0,-1.82 0.82,-2.94 2.17,-2.94c1.05,0 1.8,0.75 1.89,1.83l1.38,0c-0.15,-1.71 -1.42,-2.91 -3.25,-2.91Zm7.65,7.99c1.02,0 1.86,-0.46 2.32,-1.17l0.03,0l0,1.01l1.28,0l0,-7.62l-1.32,0l0,4.36c0,1.53 -0.92,2.34 -1.98,2.34c-1.1,0 -1.76,-0.57 -1.76,-2.16l0,-4.54l-1.32,0l0,4.65c0,2.08 1.01,3.13 2.75,3.13Zm7.29,-0.16l-0,-10.68l-1.32,0l-0,10.68l1.32,0Zm5.02,-1.03c-0.76,0 -1.05,-0.37 -1.05,-1.24l-0,-4.3l1.52,0l-0,-1.05l-1.52,0l-0,-1.85l-1.31,0l-0,1.85l-1.33,0l-0,1.05l1.33,0l-0,4.44c-0,1.57 0.61,2.19 2.06,2.19c0.27,0 0.62,-0.03 0.84,-0.09l-0,-1.08c-0.13,0.05 -0.34,0.08 -0.54,0.08Zm8.34,-6.59l-1.39,0l-2.22,6.06l-0.03,0l-2.19,-6.06l-1.43,0l2.9,7.65c-0.5,1.35 -0.89,1.71 -1.89,1.71c-0.24,0 -0.45,-0.03 -0.63,-0.09l-0,1.11c0.19,0.06 0.43,0.07 0.69,0.07c1.64,0 2.39,-0.54 3.14,-2.49l3.05,-7.96Zm7.59,-0.21c-2.23,0 -3.61,1.53 -3.61,4.02c-0,2.49 1.38,4.02 3.61,4.02c2.24,0 3.63,-1.53 3.63,-4.02c-0,-2.49 -1.39,-4.02 -3.63,-4.02Zm-0,1.08c1.4,0 2.25,1.12 2.25,2.94c-0,1.82 -0.85,2.94 -2.25,2.94c-1.38,0 -2.23,-1.12 -2.23,-2.94c-0,-1.82 0.85,-2.94 2.23,-2.94Zm8.19,-2.96c0.17,0 0.35,0.02 0.44,0.05l-0,-1.02c-0.18,-0.05 -0.5,-0.07 -0.77,-0.07c-1.35,0 -2.08,0.72 -2.08,2.19l-0,0.94l-1.34,0l-0,1.05l1.34,0l-0,6.57l1.3,0l-0,-6.57l1.52,0l-0,-1.05l-1.52,0l-0,-0.8c-0,-0.94 0.38,-1.29 1.11,-1.29Zm11.51,6.53l1.15,3.18l1.49,0l-4.07,-10.68l-1.87,0l-4.05,10.68l1.47,0l1.17,-3.18l4.71,0Zm-0.45,-1.21l-3.83,0l0.36,-0.98c0.54,-1.48 1.04,-2.87 1.55,-4.35l0.03,0c0.51,1.48 1,2.87 1.54,4.35l0.35,0.98Zm7.86,-3.31c-0.98,0 -1.74,0.41 -2.25,1.25l-0.03,0l-0,-1.17l-1.26,0l-0,7.62l1.32,0l-0,-3.89c-0,-1.67 0.81,-2.6 2.25,-2.6c0.16,0 0.36,0.02 0.52,0.04l-0,-1.19c-0.16,-0.04 -0.39,-0.06 -0.55,-0.06Zm4.75,6.67c-0.76,0 -1.05,-0.37 -1.05,-1.24l-0,-4.3l1.52,0l-0,-1.05l-1.52,0l-0,-1.85l-1.32,0l-0,1.85l-1.32,0l-0,1.05l1.32,0l-0,4.44c-0,1.57 0.62,2.19 2.07,2.19c0.27,0 0.62,-0.03 0.84,-0.09l-0,-1.08c-0.13,0.05 -0.34,0.08 -0.54,0.08Zm4.53,-6.8c-1.66,0 -2.82,0.9 -2.82,2.2c-0,1.67 1.31,1.92 2.58,2.24c1.47,0.36 2.1,0.52 2.1,1.41c-0,0.69 -0.66,1.14 -1.65,1.14c-1.18,0 -1.87,-0.6 -1.87,-1.69l-1.34,0c0.02,1.78 1.2,2.74 3.2,2.74c1.84,0 3.01,-0.92 3.01,-2.28c-0,-1.77 -1.48,-2.09 -2.88,-2.43c-1.27,-0.3 -1.83,-0.44 -1.83,-1.23c-0,-0.66 0.57,-1.08 1.49,-1.08c1.06,0 1.69,0.55 1.69,1.57l1.29,0c-0,-1.68 -1.11,-2.59 -2.97,-2.59Zm6.33,7.83l-0,-1.76l-1.62,0l-0,1.76l0.54,0l-0.57,2.16l0.87,0l0.78,-2.16Z" style="fill:#0000dc;fill-rule:nonzero;"/><path d="M122.64,64.69l0,-10.68l-2.23,0l-1.92,5.26c-0.48,1.36 -0.96,2.75 -1.41,4.1l-0.03,-0c-0.45,-1.35 -0.93,-2.74 -1.41,-4.1l-1.94,-5.26l-2.22,-0l0,10.68l1.36,0l0,-5.43c0,-1.35 -0.02,-2.71 -0.03,-4.08l0.03,0c0.46,1.37 0.95,2.71 1.45,4.08l1.98,5.43l1.59,0l1.98,-5.43c0.5,-1.37 0.99,-2.71 1.45,-4.08l0.04,0c-0.02,1.37 -0.04,2.73 -0.04,4.08l0,5.43l1.35,0Zm5.32,-7.83c-1.94,0 -2.99,1.09 -3.06,2.53l1.32,0c0.04,-0.9 0.63,-1.51 1.74,-1.51c1.01,0 1.72,0.53 1.72,1.78l0,0.3c-0.6,0.05 -1.53,0.15 -2.2,0.26c-2.19,0.34 -2.9,1.14 -2.9,2.4c0,1.29 0.99,2.24 2.58,2.24c1.23,0 2.12,-0.47 2.64,-1.28l0.03,0c0,0.34 0.03,0.76 0.11,1.11l1.2,0c-0.11,-0.47 -0.18,-1.11 -0.18,-1.95l0,-2.93c0,-2.01 -1.15,-2.95 -3,-2.95Zm1.72,4.58c0,0.89 -0.15,1.31 -0.62,1.79c-0.37,0.4 -0.95,0.6 -1.57,0.6c-0.99,0 -1.56,-0.52 -1.56,-1.3c0,-0.75 0.45,-1.12 1.76,-1.32c0.58,-0.1 1.4,-0.19 1.99,-0.24l0,0.47Zm5.94,-4.58c-1.67,0 -2.82,0.9 -2.82,2.2c0,1.67 1.3,1.92 2.58,2.24c1.47,0.36 2.1,0.53 2.1,1.41c0,0.69 -0.66,1.14 -1.65,1.14c-1.18,0 -1.88,-0.6 -1.88,-1.69l-1.33,0c0.01,1.78 1.2,2.74 3.19,2.74c1.85,0 3.02,-0.92 3.02,-2.28c0,-1.77 -1.49,-2.09 -2.88,-2.43c-1.28,-0.3 -1.83,-0.44 -1.83,-1.23c0,-0.66 0.57,-1.08 1.48,-1.08c1.07,0 1.7,0.55 1.7,1.57l1.29,0c0,-1.68 -1.11,-2.59 -2.97,-2.59Zm7.93,0c-1.93,0 -2.98,1.09 -3.06,2.53l1.32,0c0.05,-0.9 0.63,-1.51 1.74,-1.51c1.02,0 1.73,0.53 1.73,1.78l0,0.3c-0.6,0.05 -1.53,0.15 -2.21,0.26c-2.19,0.34 -2.89,1.14 -2.89,2.4c0,1.29 0.99,2.24 2.58,2.24c1.23,0 2.11,-0.47 2.64,-1.28l0.03,0c0,0.34 0.03,0.76 0.1,1.11l1.2,0c-0.1,-0.47 -0.18,-1.11 -0.18,-1.95l0,-2.93c0,-2.01 -1.14,-2.95 -3,-2.95Zm1.73,4.58c0,0.89 -0.15,1.31 -0.62,1.79c-0.37,0.4 -0.96,0.6 -1.57,0.6c-0.99,0 -1.56,-0.52 -1.56,-1.3c0,-0.75 0.45,-1.12 1.75,-1.32c0.59,-0.1 1.41,-0.19 2,-0.24l0,0.47Zm7.06,-4.45c-0.97,0 -1.74,0.41 -2.25,1.25l-0.03,0l0,-1.17l-1.26,0l0,7.62l1.32,0l0,-3.89c0,-1.67 0.82,-2.6 2.25,-2.6c0.17,0 0.36,0.02 0.53,0.04l0,-1.19c-0.17,-0.04 -0.39,-0.06 -0.56,-0.06Zm7.89,0.08l-1.39,0l-2.22,6.06l-0.03,0l-2.19,-6.06l-1.43,0l2.9,7.65c-0.5,1.35 -0.89,1.71 -1.89,1.71c-0.24,0 -0.45,-0.03 -0.63,-0.09l0,1.11c0.19,0.06 0.43,0.07 0.69,0.07c1.64,0 2.39,-0.54 3.14,-2.49l3.05,-7.96Zm7.55,7.62l-3.82,-4.17l3.41,-3.45l-1.63,0l-3.07,3.16l-0.03,0l0,-6.22l-1.33,0l0,10.68l1.33,0l0,-3.81l0.03,0l3.37,3.81l1.74,0Zm7.16,0.17c1.01,0 1.85,-0.47 2.32,-1.17l0.03,0l0,1l1.27,0l0,-7.62l-1.31,0l0,4.37c0,1.53 -0.92,2.33 -1.99,2.33c-1.09,0 -1.75,-0.57 -1.75,-2.16l0,-4.54l-1.32,0l0,4.65c0,2.08 1,3.14 2.75,3.14Zm9.58,-7.95c-1.02,0 -1.84,0.46 -2.31,1.16l-0.03,0l0,-1l-1.28,0l0,7.62l1.33,0l0,-4.37c0,-1.52 0.89,-2.34 1.98,-2.34c1.09,0 1.75,0.57 1.75,2.16l0,4.55l1.32,0l0,-4.65c0,-2.09 -1.02,-3.13 -2.76,-3.13Zm6.35,-1.42l0,-1.48l-1.33,0l0,1.48l1.33,0Zm0,9.2l0,-7.62l-1.33,0l0,7.62l1.33,0Zm5.54,0l2.76,-7.62l-1.41,0l-1.09,3.2c-0.39,1.15 -0.73,2.23 -1.1,3.39l-0.03,0c-0.35,-1.16 -0.72,-2.24 -1.1,-3.39l-1.09,-3.2l-1.41,0l2.76,7.62l1.71,0Zm6.83,-0.81c-1.24,0 -2.2,-0.86 -2.26,-2.73l5.7,0c0,-0.66 -0.05,-1.2 -0.15,-1.63c-0.39,-1.64 -1.61,-2.66 -3.33,-2.66c-2.22,0 -3.54,1.66 -3.54,3.91c0,2.5 1.33,4.13 3.58,4.13c1.95,0 3.11,-1.15 3.36,-2.49l-1.35,0c-0.18,0.86 -0.9,1.47 -2.01,1.47Zm-0.04,-6c1.17,0 2.04,0.78 2.17,2.26l-4.38,0c0.14,-1.45 0.99,-2.26 2.21,-2.26Zm8.8,-0.89c-0.97,0 -1.74,0.41 -2.25,1.25l-0.03,0l0,-1.17l-1.26,0l0,7.62l1.32,0l0,-3.89c0,-1.67 0.81,-2.6 2.25,-2.6c0.17,0 0.36,0.02 0.53,0.04l0,-1.19c-0.17,-0.04 -0.39,-0.06 -0.56,-0.06Zm4.11,-0.13c-1.66,0 -2.82,0.9 -2.82,2.2c0,1.67 1.31,1.92 2.58,2.24c1.47,0.36 2.1,0.53 2.1,1.41c0,0.69 -0.66,1.14 -1.65,1.14c-1.18,0 -1.87,-0.6 -1.87,-1.69l-1.34,0c0.02,1.78 1.2,2.74 3.2,2.74c1.84,0 3.01,-0.92 3.01,-2.28c0,-1.77 -1.48,-2.09 -2.88,-2.43c-1.27,-0.3 -1.83,-0.44 -1.83,-1.23c0,-0.66 0.57,-1.08 1.49,-1.08c1.06,0 1.69,0.55 1.69,1.57l1.29,0c0,-1.68 -1.11,-2.59 -2.97,-2.59Zm6.32,-1.37l0,-1.48l-1.32,0l0,1.48l1.32,0Zm0,9.2l0,-7.62l-1.32,0l0,7.62l1.32,0Zm5.02,-1.03c-0.76,0 -1.05,-0.36 -1.05,-1.24l0,-4.3l1.52,0l0,-1.05l-1.52,0l0,-1.85l-1.32,0l0,1.85l-1.32,0l0,1.05l1.32,0l0,4.44c0,1.57 0.62,2.19 2.07,2.19c0.27,0 0.62,-0.03 0.84,-0.09l0,-1.08c-0.13,0.05 -0.34,0.08 -0.54,0.08Zm8.34,-6.59l-1.39,0l-2.22,6.06l-0.03,0l-2.19,-6.06l-1.43,0l2.9,7.65c-0.5,1.35 -0.89,1.71 -1.89,1.71c-0.24,0 -0.45,-0.03 -0.63,-0.09l0,1.11c0.19,0.06 0.43,0.07 0.69,0.07c1.63,0 2.38,-0.54 3.13,-2.49l3.06,-7.96Z" style="fill:#0000dc;fill-rule:nonzero;"/></svg>